<svg xmlns="http://www.w3.org/2000/svg" xmlns:xlink="http://www.w3.org/1999/xlink" width="500" zoomAndPan="magnify" viewBox="0 0 375 74.999997" height="100" preserveAspectRatio="xMidYMid meet" version="1.0"><defs><g/><clipPath id="f3e1642f99"><path d="M 366.53125 48.34375 L 374.679688 48.34375 L 374.679688 56.492188 L 366.53125 56.492188 Z M 366.53125 48.34375 " clip-rule="nonzero"/></clipPath><clipPath id="ae2d087c07"><path d="M 370.605469 48.34375 C 372.855469 48.34375 374.679688 50.167969 374.679688 52.417969 C 374.679688 54.667969 372.855469 56.492188 370.605469 56.492188 C 368.355469 56.492188 366.53125 54.667969 366.53125 52.417969 C 366.53125 50.167969 368.355469 48.34375 370.605469 48.34375 Z M 370.605469 48.34375 " clip-rule="nonzero"/></clipPath></defs><g clip-path="url(#f3e1642f99)"><g clip-path="url(#ae2d087c07)"><path fill="#ff0000" d="M 366.53125 48.34375 L 374.679688 48.34375 L 374.679688 56.492188 L 366.53125 56.492188 Z M 366.53125 48.34375 " fill-opacity="1" fill-rule="nonzero"/></g></g><g fill="#fefefe" fill-opacity="1"><g transform="translate(0.0408582, 55.496078)"><g><path d="M 0.464844 0 L 9.242188 0 L 11.667969 -6.246094 L 26.023438 -6.246094 L 28.449219 0 L 37.230469 0 L 22.875 -36.144531 L 14.820312 -36.144531 Z M 13.785156 -12.703125 L 18.847656 -25.921875 L 23.957031 -12.703125 Z M 13.785156 -12.703125 "/></g></g></g><g fill="#fefefe" fill-opacity="1"><g transform="translate(37.734717, 55.496078)"><g><path d="M 3.925781 0 L 11.773438 0 L 11.773438 -14.199219 C 11.773438 -18.484375 14.148438 -21.117188 17.761719 -21.117188 C 21.117188 -21.117188 23.132812 -18.742188 23.132812 -14.769531 L 23.132812 0 L 30.980469 0 L 30.980469 -15.59375 C 30.980469 -23.082031 26.695312 -27.832031 19.621094 -27.832031 C 16.007812 -27.832031 12.753906 -26.59375 10.585938 -24.0625 L 9.757812 -27.109375 L 3.925781 -27.109375 Z M 3.925781 0 "/></g></g></g><g fill="#fefefe" fill-opacity="1"><g transform="translate(72.123907, 55.496078)"><g><path d="M 15.800781 0.722656 C 19.726562 0.722656 23.082031 -0.671875 25.507812 -3.097656 L 26.4375 0 L 32.273438 0 L 32.273438 -38.210938 L 24.421875 -38.210938 L 24.421875 -24.992188 C 22.101562 -26.796875 19.15625 -27.832031 15.800781 -27.832031 C 7.746094 -27.832031 2.015625 -21.894531 2.015625 -13.582031 C 2.015625 -5.164062 7.746094 0.722656 15.800781 0.722656 Z M 9.757812 -13.582031 C 9.757812 -17.96875 12.804688 -21.117188 17.246094 -21.117188 C 21.636719 -21.117188 24.683594 -17.96875 24.683594 -13.582031 C 24.683594 -9.140625 21.636719 -6.042969 17.246094 -6.042969 C 12.804688 -6.042969 9.757812 -9.140625 9.757812 -13.582031 Z M 9.757812 -13.582031 "/></g></g></g><g fill="#fefefe" fill-opacity="1"><g transform="translate(108.320344, 55.496078)"><g><path d="M 3.925781 0 L 11.773438 0 L 11.773438 -11.980469 C 11.773438 -17.8125 14.507812 -19.984375 19 -19.984375 L 21.996094 -19.984375 L 21.996094 -27.109375 L 19.054688 -27.109375 C 15.078125 -27.109375 12.546875 -26.023438 10.792969 -23.492188 L 9.757812 -27.109375 L 3.925781 -27.109375 Z M 3.925781 0 "/></g></g></g><g fill="#fefefe" fill-opacity="1"><g transform="translate(132.07264, 55.496078)"><g><path d="M 16.730469 0.722656 C 23.390625 0.722656 28.65625 -2.683594 31.03125 -8.417969 L 23.082031 -8.417969 C 21.789062 -6.609375 19.464844 -5.578125 16.882812 -5.578125 C 13.320312 -5.578125 10.535156 -7.589844 9.8125 -11.308594 L 31.550781 -11.308594 C 32.015625 -21.222656 26.128906 -27.832031 16.832031 -27.832031 C 8.054688 -27.832031 2.015625 -21.996094 2.015625 -13.582031 C 2.015625 -5.113281 8.003906 0.722656 16.730469 0.722656 Z M 9.863281 -16.265625 C 10.738281 -19.570312 13.425781 -21.582031 16.882812 -21.582031 C 20.5 -21.582031 23.082031 -19.570312 23.957031 -16.265625 Z M 9.863281 -16.265625 "/></g></g></g><g fill="#fefefe" fill-opacity="1"><g transform="translate(165.584032, 55.496078)"><g><path d="M 4.027344 10.328125 L 7.695312 10.328125 C 13.992188 10.328125 16.625 8.777344 18.847656 3.203125 L 30.929688 -27.109375 L 22.511719 -27.109375 L 18.898438 -17.246094 L 16.421875 -10.328125 L 9.140625 -27.109375 L 0.464844 -27.109375 L 12.652344 -0.878906 L 12.339844 0.0507812 C 11.410156 2.738281 10.328125 3.5625 7.125 3.5625 L 4.027344 3.5625 Z M 4.027344 10.328125 "/></g></g></g><g fill="#fefefe" fill-opacity="1"><g transform="translate(196.926731, 55.496078)"><g/></g></g><g fill="#fefefe" fill-opacity="1"><g transform="translate(209.074067, 55.496078)"><g><path d="M 5.835938 0 L 8.984375 0 L 8.984375 -16.109375 L 24.421875 -16.109375 L 24.421875 -19 L 8.984375 -19 L 8.984375 -33.203125 L 25.765625 -33.203125 L 25.765625 -36.144531 L 5.835938 -36.144531 Z M 5.835938 0 "/></g></g></g><g fill="#fefefe" fill-opacity="1"><g transform="translate(237.989911, 55.496078)"><g><path d="M 5.320312 0 L 8.3125 0 L 8.3125 -26.695312 L 5.320312 -26.695312 Z M 4.078125 -34.285156 C 4.078125 -32.738281 5.164062 -31.550781 6.816406 -31.550781 C 8.46875 -31.550781 9.550781 -32.738281 9.550781 -34.285156 C 9.550781 -35.785156 8.46875 -36.972656 6.816406 -36.972656 C 5.164062 -36.972656 4.078125 -35.785156 4.078125 -34.285156 Z M 4.078125 -34.285156 "/></g></g></g><g fill="#fefefe" fill-opacity="1"><g transform="translate(251.621663, 55.496078)"><g><path d="M 13.683594 0.414062 C 18.433594 0.414062 22.359375 -1.394531 24.683594 -4.59375 L 24.992188 0 L 27.46875 0 L 27.46875 -17.347656 C 27.46875 -23.289062 22.875 -27.367188 16.214844 -27.367188 C 10.535156 -27.367188 6.246094 -24.269531 4.957031 -19.3125 L 8.003906 -19.3125 C 9.085938 -22.511719 12.238281 -24.578125 16.265625 -24.578125 C 21.222656 -24.578125 24.476562 -21.636719 24.476562 -17.195312 L 24.476562 -15.285156 L 12.703125 -15.285156 C 7.230469 -15.285156 3.613281 -12.289062 3.613281 -7.539062 C 3.613281 -2.632812 7.488281 0.414062 13.683594 0.414062 Z M 6.609375 -7.589844 C 6.609375 -10.636719 9.140625 -12.652344 12.804688 -12.652344 L 24.527344 -12.652344 L 24.527344 -11.515625 C 24.527344 -6.144531 19.984375 -2.273438 13.785156 -2.273438 C 9.347656 -2.273438 6.609375 -4.335938 6.609375 -7.589844 Z M 6.609375 -7.589844 "/></g></g></g><g fill="#fefefe" fill-opacity="1"><g transform="translate(283.842174, 55.496078)"><g><path d="M 5.320312 0 L 8.3125 0 L 8.3125 -38.210938 L 5.320312 -38.210938 Z M 5.320312 0 "/></g></g></g><g fill="#fefefe" fill-opacity="1"><g transform="translate(297.473926, 55.496078)"><g><path d="M 5.320312 0 L 8.3125 0 L 8.3125 -13.890625 C 8.3125 -20.292969 12.289062 -24.476562 17.917969 -24.476562 C 23.234375 -24.476562 26.488281 -20.757812 26.488281 -14.613281 L 26.488281 0 L 29.484375 0 L 29.484375 -14.871094 C 29.484375 -22.566406 25.25 -27.367188 18.332031 -27.367188 C 14.148438 -27.367188 10.429688 -25.507812 8.3125 -21.839844 L 8.3125 -38.210938 L 5.320312 -38.210938 Z M 5.320312 0 "/></g></g></g><g fill="#fefefe" fill-opacity="1"><g transform="translate(331.708211, 55.496078)"><g><path d="M 17.039062 0.671875 C 25.25 0.671875 31.03125 -5.113281 31.03125 -13.375 C 31.03125 -21.582031 25.25 -27.367188 17.039062 -27.367188 C 8.777344 -27.367188 2.996094 -21.582031 2.996094 -13.375 C 2.996094 -5.113281 8.777344 0.671875 17.039062 0.671875 Z M 5.988281 -13.375 C 5.988281 -19.929688 10.480469 -24.476562 17.039062 -24.476562 C 23.546875 -24.476562 28.039062 -19.929688 28.039062 -13.375 C 28.039062 -6.765625 23.546875 -2.21875 17.039062 -2.21875 C 10.480469 -2.21875 5.988281 -6.765625 5.988281 -13.375 Z M 5.988281 -13.375 "/></g></g></g></svg>